# xmcd CD database file
#
# Track frame offsets:
#	150
#	12143
#	22095
#	34140
#	51677
#	69911
#	89148
#	101670
#	131166
#	155582
#	170895
#	189604
#	207493
#
# Disc length: 2907 seconds
#
# Revision: 0
# Processed by: cddbd v1.4PL0 Copyright (c) Steve Scherf et al.
# Submitted via: Feurio! 1.63 - http://www.feurio.com
#
DISCID=c60b590d
DTITLE=Rob Swift - The Ablist
DYEAR=1900
DGENRE=
TTITLE0=dope on plastic
TTITLE1=what would you do
TTITLE2=night time
TTITLE3=modern day music
TTITLE4=fusion beats
TTITLE5=turntablist anthem
TTITLE6=i´m leaving
TTITLE7=all that scratching is making me rich!
TTITLE8=musica negra - black musik
TTITLE9=gangis khan
TTITLE10=this is our day
TTITLE11=something different
TTITLE12=the ablist
EXTD=
EXTT0=
EXTT1=
EXTT2=
EXTT3=
EXTT4=
EXTT5=
EXTT6=
EXTT7=
EXTT8=
EXTT9=
EXTT10=
EXTT11=
EXTT12=
PLAYORDER=
